<?xml version="1.0" encoding="UTF-8" standalone="no"?>
<!DOCTYPE svg PUBLIC "-//W3C//DTD SVG 1.1//EN" "http://www.w3.org/Graphics/SVG/1.1/DTD/svg11.dtd">
<svg width="100%" height="100%" viewBox="0 0 1900 1900" version="1.1" xmlns="http://www.w3.org/2000/svg" xmlns:xlink="http://www.w3.org/1999/xlink" xml:space="preserve" xmlns:serif="http://www.serif.com/" style="fill-rule:evenodd;clip-rule:evenodd;stroke-linejoin:round;stroke-miterlimit:1.41421;">
    <g transform="matrix(1,0,0,1,54,54)">
        <path d="M256,1440L256,1632C256,1641.33 253,1649 247,1655C241,1661 233.333,1664 224,1664L32,1664C22.667,1664 15,1661 9,1655C3,1649 0,1641.33 0,1632L0,1440C0,1430.67 3,1423 9,1417C15,1411 22.667,1408 32,1408L224,1408C233.333,1408 241,1411 247,1417C253,1423 256,1430.67 256,1440Z" style="stroke:black;stroke-width:33px;"/>
    </g>
    <g transform="matrix(1,0,0,1,54,54)">
        <path d="M640,1312L640,1632C640,1641.33 637,1649 631,1655C625,1661 617.333,1664 608,1664L416,1664C406.667,1664 399,1661 393,1655C387,1649 384,1641.33 384,1632L384,1312C384,1302.67 387,1295 393,1289C399,1283 406.667,1280 416,1280L608,1280C617.333,1280 625,1283 631,1289C637,1295 640,1302.67 640,1312Z" style="fill:none;stroke:black;stroke-width:33px;"/>
    </g>
    <g transform="matrix(1,0,0,1,54,54)">
        <path d="M1024,1056L1024,1632C1024,1641.33 1021,1649 1015,1655C1009,1661 1001.33,1664 992,1664L800,1664C790.667,1664 783,1661 777,1655C771,1649 768,1641.33 768,1632L768,1056C768,1046.67 771,1039 777,1033C783,1027 790.667,1024 800,1024L992,1024C1001.33,1024 1009,1027 1015,1033C1021,1039 1024,1046.67 1024,1056Z" style="fill:none;stroke:black;stroke-width:33px;"/>
    </g>
    <g transform="matrix(1,0,0,1,54,54)">
        <path d="M1408,672L1408,1632C1408,1641.33 1405,1649 1399,1655C1393,1661 1385.33,1664 1376,1664L1184,1664C1174.67,1664 1167,1661 1161,1655C1155,1649 1152,1641.33 1152,1632L1152,672C1152,662.667 1155,655 1161,649C1167,643 1174.67,640 1184,640L1376,640C1385.33,640 1393,643 1399,649C1405,655 1408,662.667 1408,672Z" style="fill:none;stroke:black;stroke-width:33px;"/>
    </g>
    <g transform="matrix(1,0,0,1,54,54)">
        <path d="M1792,160L1792,1632C1792,1641.33 1789,1649 1783,1655C1777,1661 1769.33,1664 1760,1664L1568,1664C1558.67,1664 1551,1661 1545,1655C1539,1649 1536,1641.33 1536,1632L1536,160C1536,150.667 1539,143 1545,137C1551,131 1558.67,128 1568,128L1760,128C1769.33,128 1777,131 1783,137C1789,143 1792,150.667 1792,160Z" style="fill:none;stroke:black;stroke-width:33px;"/>
    </g>
</svg>
