<?xml version="1.0" encoding="UTF-8" standalone="no"?>
<!DOCTYPE svg PUBLIC "-//W3C//DTD SVG 1.1//EN" "http://www.w3.org/Graphics/SVG/1.1/DTD/svg11.dtd">
<svg width="100%" height="100%" viewBox="0 0 1900 1900" version="1.1" xmlns="http://www.w3.org/2000/svg" xmlns:xlink="http://www.w3.org/1999/xlink" xml:space="preserve" xmlns:serif="http://www.serif.com/" style="fill-rule:evenodd;clip-rule:evenodd;stroke-linejoin:round;stroke-miterlimit:1.41421;">
    <path d="M832,352L832,1440C832,1457.33 825.667,1472.33 813,1485C800.333,1497.67 785.333,1504 768,1504C750.667,1504 735.667,1497.67 723,1485L390,1152L128,1152C110.667,1152 95.667,1145.67 83,1133C70.333,1120.33 64,1105.33 64,1088L64,704C64,686.667 70.333,671.667 83,659C95.667,646.333 110.667,640 128,640L390,640L723,307C735.667,294.333 750.667,288 768,288C785.333,288 800.333,294.333 813,307C825.667,319.667 832,334.667 832,352Z" style="stroke:black;stroke-width:36px;"/>
    <path d="M1216,896C1216,946.667 1201.83,993.833 1173.5,1037.5C1145.17,1081.17 1107.67,1112.33 1061,1131C1054.33,1134.33 1046,1136 1036,1136C1018.67,1136 1003.67,1129.83 991,1117.5C978.333,1105.17 972,1090 972,1072C972,1058 976,1046.17 984,1036.5C992,1026.83 1001.67,1018.5 1013,1011.5C1024.33,1004.5 1035.67,996.833 1047,988.5C1058.33,980.167 1068,968.333 1076,953C1084,937.667 1088,918.667 1088,896C1088,873.333 1084,854.333 1076,839C1068,823.667 1058.33,811.833 1047,803.5C1035.67,795.167 1024.33,787.5 1013,780.5C1001.67,773.5 992,765.167 984,755.5C976,745.833 972,734 972,720C972,702 978.333,686.833 991,674.5C1003.67,662.167 1018.67,656 1036,656C1046,656 1054.33,657.667 1061,661C1107.67,679 1145.17,710 1173.5,754C1201.83,798 1216,845.333 1216,896Z" style="stroke:black;stroke-width:36px;"/>
    <path d="M1472,896C1472,998 1443.67,1092.17 1387,1178.5C1330.33,1264.83 1255.33,1327.67 1162,1367C1153.33,1370.33 1145,1372 1137,1372C1119,1372 1103.67,1365.67 1091,1353C1078.33,1340.33 1072,1325.33 1072,1308C1072,1282 1085,1262.33 1111,1249C1148.33,1229.67 1173.67,1215 1187,1205C1236.33,1169 1274.83,1123.83 1302.5,1069.5C1330.17,1015.17 1344,957.333 1344,896C1344,834.667 1330.17,776.833 1302.5,722.5C1274.83,668.167 1236.33,623 1187,587C1173.67,577 1148.33,562.333 1111,543C1085,529.667 1072,510 1072,484C1072,466.667 1078.33,451.667 1091,439C1103.67,426.333 1118.67,420 1136,420C1144.67,420 1153.33,421.667 1162,425C1255.33,464.333 1330.33,527.167 1387,613.5C1443.67,699.833 1472,794 1472,896Z" style="fill:none;stroke:black;stroke-width:36px;"/>
    <path d="M1728,896C1728,1049.33 1685.67,1190.17 1601,1318.5C1516.33,1446.83 1403.67,1541.33 1263,1602C1254.33,1605.33 1245.67,1607 1237,1607C1219.67,1607 1204.67,1600.67 1192,1588C1179.33,1575.33 1173,1560.33 1173,1543C1173,1519 1186,1499.33 1212,1484C1216.67,1481.33 1224.17,1477.83 1234.5,1473.5C1244.83,1469.17 1252.33,1465.67 1257,1463C1287.67,1446.33 1315,1429.33 1339,1412C1421,1351.33 1485,1275.67 1531,1185C1577,1094.33 1600,998 1600,896C1600,794 1577,697.667 1531,607C1485,516.333 1421,440.667 1339,380C1315,362.667 1287.67,345.667 1257,329C1252.33,326.333 1244.83,322.833 1234.5,318.5C1224.17,314.167 1216.67,310.667 1212,308C1186,292.667 1173,273 1173,249C1173,231.667 1179.33,216.667 1192,204C1204.67,191.333 1219.67,185 1237,185C1245.67,185 1254.33,186.667 1263,190C1403.67,250.667 1516.33,345.167 1601,473.5C1685.67,601.833 1728,742.667 1728,896Z" style="fill:none;stroke:black;stroke-width:36px;"/>
</svg>
